# xmcd
#
# Track frame offsets:
#	150
#	16329
#	30235
#	47580
#	60252
#	78235
#	95354
#	107666
#	122576
#	140564
#	158176
#	173706
#	190319
#	205270
#	222743
#	241734
#	259820
#	287454
#
# Disc length: 4016 seconds
#
# Revision: 1
# Processed by: cddbd v1.4PL0 Copyright (c) Steve Scherf et al.
# Submitted via: audiograbber 1.81.03
#
DISCID=ed0fae12
DTITLE=Various Artist - Hott Country 61
DYEAR=2001
DGENRE=Country
TTITLE0=Faith Hill - If My Heart Had Wings
TTITLE1=John Michael Montgomery - That's What I Like About You
TTITLE2=Vince Gill - Shoot Straight From Your Heart
TTITLE3=Georgia Middleman - Kick Down The Door
TTITLE4=Terri Clark - No Fear
TTITLE5=Tim Rushlow - She Misses Him
TTITLE6=Tyler England - My Baby Esta Aqui No More
TTITLE7=Clay Davidson - Sometimes
TTITLE8=Chalee Tennison - Go Back
TTITLE9=The Wilkinsons - It Was Only A Kiss
TTITLE10=Martina McBride - It's My Time
TTITLE11=Montgomery Gentry - She Couldn't Change Me
TTITLE12=Billy Ray Cyrus - Burn Down The Trailer Park
TTITLE13=Phil Vassar - Rose Bouquet
TTITLE14=Sons Of The Desert - What I Did Right
TTITLE15=Kasey Chambers - Cry Like A Baby
TTITLE16=Dar Williams - Highway Patrolman
TTITLE17=Cledus T. Judd - How To Milk A Cow
EXTD=
EXTT0=
EXTT1=
EXTT2=
EXTT3=
EXTT4=
EXTT5=
EXTT6=
EXTT7=
EXTT8=
EXTT9=
EXTT10=
EXTT11=
EXTT12=
EXTT13=
EXTT14=
EXTT15=
EXTT16=
EXTT17=
PLAYORDER=
